HIERARCHY
ROOT Hips
{
 OFFSET 0.000000 0.000000 0.000000
 CHANNELS 6 Xposition Yposition Zposition Yrotation Xrotation Zrotation
 JOINT Chest
 {
  OFFSET 0.000000 10.472350 -0.000389
  CHANNELS 3 Yrotation Xrotation Zrotation
  JOINT Chest2
  {
   OFFSET 0.000000 11.551931 0.000707
   CHANNELS 3 Yrotation Xrotation Zrotation
   JOINT Chest3
   {
    OFFSET 0.000000 10.437915 0.000000
    CHANNELS 3 Yrotation Xrotation Zrotation
    JOINT Chest4
    {
     OFFSET 0.000000 10.437915 0.000000
     CHANNELS 3 Yrotation Xrotation Zrotation
     JOINT Neck
     {
      OFFSET 0.000000 14.676306 0.000000
      CHANNELS 3 Yrotation Xrotation Zrotation
      JOINT Head
      {
       OFFSET 0.000000 9.715761 0.001682
       CHANNELS 3 Yrotation Xrotation Zrotation
       End Site
       {
        OFFSET 0.000000 18.584037 0.000879
       }
      }
     }
     JOINT RightCollar
     {
      OFFSET -3.192169 8.189398 0.000000
      CHANNELS 3 Yrotation Xrotation Zrotation
      JOINT RightShoulder
      {
       OFFSET -14.921841 0.000000 0.000000
       CHANNELS 3 Yrotation Xrotation Zrotation
       JOINT RightElbow
       {
        OFFSET 0.000000 -31.895804 0.000000
        CHANNELS 3 Yrotation Xrotation Zrotation
        JOINT RightWrist
        {
         OFFSET 0.000000 -26.087765 -0.000000
         CHANNELS 3 Yrotation Xrotation Zrotation
         End Site
         {
          OFFSET 0.000000 -19.509425 0.000000
         }
        }
       }
      }
     }
     JOINT LeftCollar
     {
      OFFSET 3.192169 8.189398 0.000000
      CHANNELS 3 Yrotation Xrotation Zrotation
      JOINT LeftShoulder
      {
       OFFSET 14.921841 0.000000 0.000000
       CHANNELS 3 Yrotation Xrotation Zrotation
       JOINT LeftElbow
       {
        OFFSET 0.000000 -31.895804 0.000000
        CHANNELS 3 Yrotation Xrotation Zrotation
        JOINT LeftWrist
        {
         OFFSET 0.000000 -26.087765 -0.000000
         CHANNELS 3 Yrotation Xrotation Zrotation
         End Site
         {
          OFFSET 0.000000 -19.509425 0.000000
         }
        }
       }
      }
     }
    }
   }
  }
 }
 JOINT RightHip
 {
  OFFSET -8.507794 0.001908 0.000195
  CHANNELS 3 Yrotation Xrotation Zrotation
  JOINT RightKnee
  {
   OFFSET 0.000000 -44.002854 -0.000184
   CHANNELS 3 Yrotation Xrotation Zrotation
   JOINT RightAnkle
   {
    OFFSET 0.000000 -43.029750 -0.000312
    CHANNELS 3 Yrotation Xrotation Zrotation
    JOINT RightToe
    {
     OFFSET 0.000000 -7.822577 17.783028
     CHANNELS 3 Yrotation Xrotation Zrotation
     End Site
     {
      OFFSET 0.000000 -1.616737 7.073338
     }
    }
   }
  }
 }
 JOINT LeftHip
 {
  OFFSET 8.507794 0.001908 0.000195
  CHANNELS 3 Yrotation Xrotation Zrotation
  JOINT LeftKnee
  {
   OFFSET 0.000000 -44.002854 -0.000184
   CHANNELS 3 Yrotation Xrotation Zrotation
   JOINT LeftAnkle
   {
    OFFSET 0.000000 -43.029750 -0.000312
    CHANNELS 3 Yrotation Xrotation Zrotation
    JOINT LeftToe
    {
     OFFSET 0.000000 -7.822577 17.783028
     CHANNELS 3 Yrotation Xrotation Zrotation
     End Site
     {
      OFFSET 0.000000 -1.616737 7.073338
     }
    }
   }
  }
 }
}
MOTION
Frames: 8
Frame Time: 0.008333
328.217468 96.701975 -25.418647 -50.956964 -11.984910 -1.067370 3.235107 9.302587 1.054547 1.415608 4.143875 0.421008 1.415608 4.143875 0.421008 1.058384 3.108902 0.306007 7.163843 20.405739 0.950589 7.562100 -4.083870 -0.637078 -6.776497 6.206295 12.428247 -5.426640 -6.215596 -18.615092 18.535983 -18.819335 6.265576 16.454032 6.249336 -18.002158 -1.883731 7.627116 -6.621289 -5.907501 -14.786664 19.189963 -11.400381 -8.031265 -11.932748 -14.687140 -3.040445 10.723334 -12.281017 15.741273 -6.494245 -6.615123 3.441101 1.121833 -4.170834 -3.548941 2.728087 0.026534 -0.051596 0.015433 9.788028 11.567785 7.642165 0.683684 8.272571 0.573277 11.880064 -5.513739 -1.491012 -0.033461 0.022553 0.004712
328.265428 96.703914 -25.439834 -50.940364 -12.042391 -1.086952 3.241445 9.389835 1.070988 1.418183 4.182501 0.428515 1.418183 4.182501 0.428515 1.060228 3.137891 0.311524 7.086313 20.432438 0.972330 7.469884 -4.059670 -0.595371 -6.764850 6.199670 12.424025 -5.381773 -6.254227 -18.627313 18.499560 -18.931968 6.301803 16.450751 6.238373 -18.009567 -1.881179 7.634219 -6.623404 -6.004015 -14.830447 19.209025 -11.408191 -8.094402 -11.948490 -14.717512 -3.089320 10.831351 -12.297968 15.723723 -6.498643 -6.607717 3.530926 1.123689 -4.170161 -3.559224 2.723978 0.024904 -0.054298 0.015860 9.798905 11.532297 7.652413 0.666630 8.380037 0.586137 11.868730 -5.535357 -1.490138 -0.033855 0.021226 0.004455
328.315434 96.705452 -25.462394 -50.925668 -12.097618 -1.111160 3.254980 9.482443 1.091038 1.423683 4.223381 0.437192 1.423683 4.223381 0.437192 1.064253 3.168575 0.317893 6.998330 20.458582 0.998356 7.364974 -4.036914 -0.546621 -6.760286 6.190719 12.421448 -5.331440 -6.299275 -18.641485 18.459301 -19.057280 6.343330 16.441121 6.226232 -18.014523 -1.890660 7.637525 -6.616313 -6.107089 -14.877481 19.227102 -11.410078 -8.162244 -11.952596 -14.727206 -3.135664 10.911821 -12.318469 15.700809 -6.495017 -6.587422 3.622634 1.117904 -4.173142 -3.568549 2.722878 0.023481 -0.056659 0.016096 9.813094 11.484411 7.667627 0.652881 8.503564 0.599572 11.851310 -5.564023 -1.488815 -0.033693 0.020468 0.002908
328.369472 96.706267 -25.486747 -50.910644 -12.152077 -1.138802 3.264535 9.578983 1.112600 1.427096 4.266005 0.446161 1.427096 4.266005 0.446161 1.066708 3.200568 0.324490 6.912720 20.490281 1.022335 7.263459 -4.007467 -0.500653 -6.741835 6.188050 12.421856 -5.280384 -6.358409 -18.662221 18.421863 -19.188393 6.388697 16.431110 6.213564 -18.012870 -1.898007 7.639139 -6.604436 -6.213131 -14.925720 19.247647 -11.401933 -8.217080 -11.960128 -14.707927 -3.198362 10.982350 -12.339039 15.665613 -6.491637 -6.564334 3.733289 1.116298 -4.175719 -3.583751 2.717486 0.023021 -0.059030 0.018456 9.826859 11.428565 7.681926 0.638722 8.635578 0.619532 11.833850 -5.594949 -1.493571 -0.033370 0.021077 0.004375
328.427863 96.707693 -25.512079 -50.890131 -12.207565 -1.167694 3.272244 9.679528 1.135774 1.430039 4.311067 0.456021 1.430039 4.311067 0.456021 1.068801 3.234389 0.331752 6.822948 20.521923 1.050768 7.156339 -3.978372 -0.448925 -6.722954 6.187495 12.418170 -5.214797 -6.423194 -18.674882 18.380320 -19.327641 6.430619 16.411895 6.205435 -18.019289 -1.904384 7.638815 -6.601851 -6.324651 -14.968560 19.286695 -11.389307 -8.280575 -11.965884 -14.651079 -3.271626 11.018294 -12.365289 15.622351 -6.488573 -6.543352 3.856553 1.113384 -4.177657 -3.599691 2.712392 0.021431 -0.063134 0.020481 9.835597 11.364148 7.694528 0.621621 8.780441 0.639888 11.814010 -5.628602 -1.494266 -0.033476 0.020480 0.003301
328.490926 96.708293 -25.539707 -50.872494 -12.266819 -1.193899 3.279725 9.788747 1.158815 1.432507 4.359907 0.465507 1.432507 4.359907 0.465507 1.070535 3.271044 0.338727 6.728434 20.553600 1.076547 7.044678 -3.949452 -0.399014 -6.703211 6.181605 12.413075 -5.141576 -6.484033 -18.695970 18.340573 -19.484949 6.478962 16.374044 6.189249 -18.041345 -1.918644 7.634379 -6.591153 -6.438698 -15.012070 19.323642 -11.356140 -8.336085 -11.970411 -14.563353 -3.377880 11.034802 -12.388123 15.572932 -6.490444 -6.514473 3.992473 1.113116 -4.186383 -3.620674 2.707118 0.020276 -0.065218 0.021581 9.842385 11.297587 7.694793 0.611965 8.933468 0.675715 11.809912 -5.662486 -1.502540 -0.032443 0.020832 0.002899
328.556753 96.708889 -25.569847 -50.854271 -12.326398 -1.226027 3.292452 9.901602 1.187681 1.437139 4.410445 0.477960 1.437139 4.410445 0.477960 1.073867 3.308981 0.347905 6.624632 20.586714 1.098516 6.923704 -3.919407 -0.351119 -6.695693 6.180858 12.408737 -5.053186 -6.553456 -18.721264 18.281513 -19.651157 6.534691 16.349899 6.169792 -18.070533 -1.935998 7.635668 -6.581240 -6.567005 -15.060119 19.368052 -11.325139 -8.394779 -11.953794 -14.440053 -3.516887 11.021565 -12.424557 15.517758 -6.491494 -6.479393 4.135432 1.114642 -4.184631 -3.642987 2.699325 0.019874 -0.067647 0.022800 9.853155 11.222063 7.706959 0.594400 9.097758 0.699106 11.812861 -5.701372 -1.506022 -0.031764 0.021687 0.003062
328.626188 96.708682 -25.600408 -50.841165 -12.392022 -1.256942 3.301016 10.023623 1.216621 1.439970 4.464287 0.489431 1.439970 4.464287 0.489431 1.075850 3.349392 0.356352 6.525815 20.620421 1.122330 6.808055 -3.888209 -0.302406 -6.675814 6.181751 12.406957 -4.959667 -6.626602 -18.741284 18.237862 -19.823686 6.573660 16.327814 6.150948 -18.106804 -1.945427 7.642827 -6.571088 -6.699469 -15.119356 19.414796 -11.303040 -8.458372 -11.940931 -14.299992 -3.702553 11.050242 -12.449285 15.459420 -6.494475 -6.439603 4.293330 1.118567 -4.193142 -3.672202 2.690577 0.018513 -0.067855 0.024465 9.876578 11.145794 7.718397 0.574726 9.271128 0.731099 11.788719 -5.745758 -1.513359 -0.031236 0.023466 0.004117
